<!-- SVG code for a simple, shiny robot dog logo -->

<svg width="800px" height="600px" version="1.1" xmlns="http://www.w3.org/2000/svg" xmlns:xlink="http://www.w3.org/1999/xlink" xml:space="preserve" xmlns:serif="http://www.serif.com/" style="fill-rule:evenodd;clip-rule:evenodd;stroke-linejoin:round;stroke-miterlimit:2;">
      
    <!-- Metallic body of the robot dog -->
    <path d="M326.58,208.91C296.43,204.52 247.43,254.95 249.2,292.34C251.53,335.31 296.30,369.47 342.42,375.11C398.85,381.68 441.80,340.28 442.49,290.9C443.06,249.18 391.36,210.54 326.58,208.91Z" style="fill:grey;stroke:black;stroke-width:2px;"/>
      
    <!-- Head of the robot dog -->
    <ellipse cx="345.89" cy="264.89" rx="45.11" ry="46.07" style="fill:grey;stroke:black;stroke-width:2px;"/>
      
    <!-- Eyes of the robot dog -->
    <ellipse cx="332.06" cy="250.79" rx="7.81" ry="7.97" style="fill:white;stroke:black;stroke-width:1px;"/>
    <ellipse cx="359.72" cy="251.15" rx="7.81" ry="7.97" style="fill:white;stroke:black;stroke-width:1px;"/>

    <!-- Ears of the robot dog -->
    <path d="M309.25,237.99C318.88,218.16 309.77,192.22 290.08,194.31C273.77,195.99 280.94,220.71 309.25,237.99Z" style="fill:grey;stroke:black;stroke-width:2px;"/>
    <path d="M392.03,238.61C381.94,220.51 392.51,195.2 411.32,192.65C427.86,190.68 423.77,216.76 392.03,238.61Z" style="fill:grey;stroke:black;stroke-width:2px;"/>
      
    <!-- Nose of the robot dog -->
    <ellipse cx="345.5" cy="283.65" rx="5.24" ry="5.37" style="fill:black;"/>
      
    <!-- Mouth of the robot dog -->
    <path d="M335.46,294.63C335.46,294.63 345.5,310.01 355.82,293.85" style="fill:none;stroke:black;stoke-width:2px;"/>
</svg>