<svg xmlns="http://www.w3.org/2000/svg" xmlns:xlink="http://www.w3.org/1999/xlink" viewBox="0 0 64 64">
    <defs>
        <linearGradient id="gradient" x1="0%" y1="0%" x2="100%" y2="100%">
         <stop offset="0%" style="stop-color:#87cefa; stop-opacity:1" />
         <stop offset="100%" style="stop-color:#1e90ff; stop-opacity:1" />
        </linearGradient>
    </defs>
    <g id="Cool_Surfer">
        <path fill="url(#gradient)" id="Surfer" d="M34,16c-1,0-1.5-0.5-3-2c-2-2-4-3-6-3s-4,1-6,3c-1.5,1.5-2,2-3,2s-2,0-3,0s-2.5,1.5-2.5,4s-1,6-1,9s3,5,5,6c2,1,6,1,10,1s8,0,10-1c2-1,5-3,5-6s-1-6-1-9s-1.5-4-2.5-4S35,16,34,16z"/>
        <path fill="url(#gradient)" id="Wave" d="M40,30c0,0-6,4-12,4s-12-4-12-4S9,33,9,37s6,5,14,5s14-2,14-5S40,30,40,30z"/>
        <text x="22" y="15" fill="black" font-size="5">Cool Surfer</text>
    </g>
</svg>