<svg xmlns="http://www.w3.org/2000/svg" viewBox="0 0 1280 1280">
   <path d="M633.6,369.92C578.56,392.96 513.28,410.88 449.28,410.88C301.44,410.88 189.44,299.52 189.44,152.32C189.44,68.16 253.44,1.28 337.28,1.28C393.6,1.28 440.32,36.48 462.08,84.48C496.64,70.4 536.96,64 580.48,64C747.52,64 880,192.64 880,359.04C880,391.04 870.4,421.76 852.48,449.28C813.44,449.28 770.56,429.44 733.44,406.4C717.44,419.2 699.52,429.44 678.4,435.84C678.4,435.84 692.48,475.52 723.2,501.76C738.56,516.16 752.64,529.28 776,550.4C790.4,564.48 808.96,583.68 808.96,603.52C808.96,614.4 793.6,625.28 775.68,625.28C738.56,625.28 711.68,622.4 711.68,622.4C711.68,622.4 704,637.44 704,652.8C704,665.6 718.08,678.72 735.36,678.72C772.48,678.72 812.8,673.28 812.8,673.28C812.8,673.28 823.04,687.36 823.04,702.72C823.04,720.64 793.6,730.88 768,730.88C731.52,730.88 705.28,727.04 705.28,727.04C705.28,727.04 698.24,740.48 698.24,753.28C698.24,766.72 718.72,778.24 745.6,778.24C791.04,778.24 840.96,769.28 840.96,769.28C839.36,782.08 839.36,795.52 839.36,810.24C839.36,821.12 833.28,833.28 813.44,833.28C733.44,833.28 650.24,852.48 650.24,852.48C650.24,852.48 642.56,864.64 642.56,877.44C642.56,902.4 680,914.56 720.64,914.56C801.28,914.56 883.84,890.24 883.84,890.24C887.04,904.96 887.04,917.44 887.04,931.84C887.04,942.72 880,953.6 864,953.6C753.28,953.6 662.4,971.52 662.4,971.52C662.4,971.52 654.08,983.04 654.08,995.84C654.08,1014 686.08,1024.64 726.4,1024.64C812.8,1024.64 916.48,1008 916.48,1008C916.48,1008 919.68,1020.16 919.68,1032.96C919.68,1050.88 895.04,1062.4 861.44,1062.4C796.16,1062.4 726.4,1070.72 726.4,1070.72C726.4,1070.72 721.92,1084.48 721.92,1099.2C721.92,1113.28 744.32,1125.44 780.8,1125.44C864,1125.44 956.16,1110.08 956.16,1110.08C958.72,1125.44 960,1139.52 960,1152C960,1161.6 953.6,1173.12 932.48,1173.12C862.72,1173.12 804.48,1184.64 804.48,1184.64C804.48,1184.64 802.56,1198.4 802.56,1213.76C802.56,1227.2 824.32,1239.36 860.16,1239.36C943.36,1239.36 1032.48,1223.36 1032.48,1223.36C1024.8,1253.12 1007.52,1280.64 989.44,1280C982.4,1280 975.36,1277.76 967.04,1274.56C1020.8,1258.56 1069.76,1235.2 1108.8,1196.8C1142.72,1163.52 1161.28,1122.88 1155.84,1081.6C1158.4,1092.48 1160,1104.64 1160,1117.76C1160,1128.64 1152.32,1140.8 1131.84,1140.8C1081.28,1140.8 1027.52,1155.84 1027.52,1155.84C1027.52,1155.84 1024.8,1168 1024.8,1180.8C1024.8,1195.52 1050.88,1209.6 1086.72,1209.6C1160,1209.6 1228.8,1187.84 1280,1136.64C1263.36,1164 1234.24,1189.6 1189.44,1200.48C1186.72,1212 1182.24,1224.16 1182.24,1235.04C1182.24,1244 1176.16,1256.16 1155.2,1256.16C1108.8,1256.16 1064,1271.2 1064,1271.2C1064,1271.2 1060.8,1283.36 1060.8,1296.16C1060.8,1312.64 1087.84,1324.8 1123.68,1324.8C1200.96,1324.8 1269.76,1295.04 1280,1280C1248.96,1304.32 1208.64,1326.08 1161.28,1333.76C1157.76,1346.56 1156.16,1356.48 1156.16,1363.52C1156.16,1373.76 1162.56,1386.56 1175.36,1386.56C1205.12,1386.56 1239.36,1379.52 1239.36,1379.52C1236.64,1390.4 1232.16,1401.28 1232.16,1412.16C1232.16,1422.4 1223.84,1435.2 1203.36,1435.2C1182.88,1435.2 1160,1439.68 1160,1439.68C1160,1439.68 1155.52,1452.48 1155.52,1465.92C1155.52,1486.08 1178.08,1495.84 1215.2,1495.84C1225.44,1495.84 1235.68,1494.72 1245.92,1492.48C1172.64,1536 1078.08,1568 971.52,1568C794.24,1568 652.8,1438.08 652.8,1277.12C652.8,1184.64 720,1121.12 805.76,1113.28C717.44,1107.84 645.76,1048.32 645.76,973.44C645.76,890.24 720,821.12 808.96,821.12C798.72,821.12 788.48,821.76 779.52,823.36C700.16,835.52 636.16,910.72 636.16,995.84C636.16,1085.44 709.12,1152 800,1152C764.8,1152 735.36,1138.24 715.52,1114.56C728.32,1125.44 747.52,1133.76 768,1133.76C810.24,1133.76 847.36,1110.08 861.44,1075.2C868.48,1076.32 875.52,1076.32 883.84,1076.32C953.6,1076.32 1011.84,1028.8 1011.84,965.12C1011.84,909.6 971.52,863.36 916.48,853.12C929.28,862.24 946.56,868.48 966.4,868.48C1012.96,868.48 1052.8,832.32 1061.12,790.4C1092.8,804.48 1128.64,812.8 1166.72,812.8C1237.44,812.8 1280,769.28 1280,698.24C1280,631.04 1231.84,574.72 1162.56,564.48C1172.8,569.92 1184.96,576.16 1198.4,576.16C1257.12,576.16 1304,525.76 1304,465.92C1304,405.12 1253.6,355.84 1192.8,355.84C1221.92,371.84 1241.76,398.08 1241.76,428.8C1241.76,476.16 1201.44,512 1148.8,512C1129.6,512 1111.68,506.56 1097.6,496C1102.08,511.36 1112.96,526.08 1128.32,536.32C1134.08,540.16 1140.48,543.36 1147.52,546.56C1099.2,561.28 1043.52,569.92 986.24,569.92C924.8,569.92 874.24,536.32 843.52,488.32C837.76,497.12 824.32,504 808.96,504C770.56,504 739.84,471.36 739.84,428.8C739.84,420.48 742.4,412.8 746.24,406.4ZM329.6,294.4C274.56,282.88 224,236.8 224,182.4C224,115.84 284.8,64 354.56,64C402.56,64 447.36,98.56 467.2,142.08C407.68,152.96 349.44,207.36 329.6,294.4Z" fill="#000000"/>
</svg>