- Output code:

<svg xmlns="http://www.w3.org/2000/svg" viewBox="0 0 500 500">
  
  <!-- Background: Simple white background for contrast -->
  <rect width="100%" height="100%" fill="white"/>

  <!-- Feral Cat: Blue silhouette of a sleek and agile cat -->
  <path fill="#0000FF" d="M250,350 Q310,330 320,280 L360,280 Q370,250 340,240 Q370,230 360,210 Q330,190 300,210 L290,190 Q275,170 260,190 L250,210 Q220,190 190,210 Q180,230 210,240 Q180,250 190,280 L230,280 Q240,330 300,350 Z"/>

  <!-- Feral Cat fur: Ragged outline to emphasize the wildness -->
  <path fill="#000088" d="M300,350 Q350,320 340,280 L360,280 Q370,250 340,220 Q370,200 340,180 Q320,160 280,180 L260,160 Q240,140 220,160 L200,180 Q160,160 140,180 Q130,200 150,220 Q120,250 140,280 L160,280 Q150,320 200,350 Z"/>

  <!-- Cat's Eyes: Intensely gleaming spots portraying mysterious nature -->
  <circle cx="210" cy="240" r="7" fill="aqua"/> <!-- Left Eye -->
  <circle cx="290" cy="240" r="7" fill="aqua"/> <!-- Right Eye -->

  <!-- Optional Element: A subtle dark alley -->
  <rect x="0" y="370" width="500" height="130" fill="grey" opacity="0.5"/>
  
</svg>