<svg width="400" height="400">
  <!-- Pizza Crust -->
  <!-- A round, slightly irregular shape colored light brown -->
  <ellipse cx="200" cy="200" rx="190" ry="175" style="fill:sandybrown;" />  
  
  <!-- Tomato Sauce -->
  <!-- A slightly smaller circle shape colored bright red -->
  <ellipse cx="200" cy="200" rx="180" ry="165" style="fill:tomato;" />  
  
  <!-- Mozzarella Cheese -->
  <!-- Random off-white blobs representing cheese -->
  <ellipse cx="180" cy="180" rx="36" ry="23" style="fill:ivory;" />
  <ellipse cx="230" cy="230" rx="34" ry="20" style="fill:ivory;" />
  <ellipse cx="150" cy="250" rx="30" ry="21" style="fill:ivory;" />
  
  <!-- Tomato Slices -->
  <!-- Red circles with darker areas and seed details -->
  <g>
    <!-- Slice 1 -->
    <circle cx="170" cy="150" r="16" style="fill:crimson;" />
    <circle cx="170" cy="150" r="10" style="fill:ivory;" />
    <circle cx="170" cy="150" r="1" style="fill:black;" />
    <!-- Slice 2 -->
    <circle cx="220" cy="220" r="14" style="fill:crimson;" />
    <circle cx="220" cy="220" r="9" style="fill:ivory;" />
    <circle cx="220" cy="220" r="1" style="fill:black;" />
  </g>
  
  <!-- Basil Leaves -->
  <!-- Star-like shapes in dark green -->
  <polygon points="120,180 125,190 130,180 125,170" style="fill:darkgreen;" />
  <polygon points="230,220 235,230 240,220 235,210" style="fill:darkgreen;" />
  <polygon points="160,260 165,270 170,260 165,250" style="fill:darkgreen;" />
</svg>