<svg xmlns="http://www.w3.org/2000/svg" viewBox="0 0 300 300">

<!-- Background is a plain white square -->
<rect width="300" height="300" fill="white"/>

<!-- Panda Body with a round, fluffy white shape and a black outline -->
<circle cx="150" cy="180" r="70" fill="white" stroke="black" stroke-width="10" />

<!-- Panda Head -->
<circle cx="150" cy="120" r="60" fill="white" stroke="black" stroke-width="10"/>

<!-- Black patches for Panda eyes -->
<ellipse cx="130" cy="105" rx="20" ry="30" fill="black"/>
<ellipse cx="170" cy="105" rx="20" ry="30" fill="black"/>

<!-- Panda Eyes -->
<circle cx="127" cy="105" r="8" fill="white"/>
<circle cx="172" cy="105" r="8" fill="white"/>

<!-- Panda Ears -->
<circle cx="115" cy="80" r="15" fill="black"/>
<circle cx="185" cy="80" r="15" fill="black"/>

<!-- Panda Arms -->
<ellipse cx="100" cy="175" rx="25" ry="30" fill="white" stroke="black" stroke-width="5"/>
<ellipse cx="200" cy="175" rx="25" ry="30" fill="white" stroke="black" stroke-width="5"/>

<!-- Bamboo Stick in the Panda's hand -->
<path d="M205,180 v-100 a1,1 0 0,0 6,0 v100" fill="none" stroke="darkgreen" stroke-width="4"/>

<!-- Panda Legs -->
<ellipse cx="135" cy="230" rx="20" ry="25" fill="white" stroke="black" stroke-width="5"/>
<ellipse cx="165" cy="230" rx="20" ry="25" fill="white" stroke="black" stroke-width="5"/>

<!-- Panda Mouth-->
<path d="M140,135 Q150,150 160,135" fill="none" stroke="black" stroke-width="3"/>

</svg>